<svg id="visual" viewBox="0 0 900 600" width="900" height="600" xmlns="http://www.w3.org/2000/svg" xmlns:xlink="http://www.w3.org/1999/xlink" version="1.1"><rect width="900" height="600" fill="#ffffff"></rect><g><g transform="translate(440 335)"><path d="M0 -103.3L89.5 -51.7L89.5 51.7L0 103.3L-89.5 51.7L-89.5 -51.7Z" fill="none" stroke="#e6e6e6" stroke-width="2"></path></g><g transform="translate(117 119)"><path d="M0 -67L58 -33.5L58 33.5L0 67L-58 33.5L-58 -33.5Z" stroke="#e6e6e6" fill="none" stroke-width="2"></path></g><g transform="translate(655 411)"><path d="M0 -27L23.4 -13.5L23.4 13.5L0 27L-23.4 13.5L-23.4 -13.5Z" stroke="#e6e6e6" fill="none" stroke-width="2"></path></g><g transform="translate(202 465)"><path d="M0 -32L27.7 -16L27.7 16L0 32L-27.7 16L-27.7 -16Z" stroke="#e6e6e6" fill="none" stroke-width="2"></path></g></g></svg>