<svg id="visual" viewBox="0 0 675 900" width="675" height="900" xmlns="http://www.w3.org/2000/svg" xmlns:xlink="http://www.w3.org/1999/xlink" version="1.1"><rect width="675" height="900" fill="#ffffff"></rect><g><g transform="translate(347 737)"><path d="M0 -109.6L94.9 -54.8L94.9 54.8L0 109.6L-94.9 54.8L-94.9 -54.8Z" fill="none" stroke="#e6e6e6" stroke-width="2"></path></g><g transform="translate(115 603)"><path d="M0 -64L55.4 -32L55.4 32L0 64L-55.4 32L-55.4 -32Z" stroke="#e6e6e6" fill="none" stroke-width="2"></path></g><g transform="translate(258 420)"><path d="M0 -83L71.9 -41.5L71.9 41.5L0 83L-71.9 41.5L-71.9 -41.5Z" stroke="#e6e6e6" fill="none" stroke-width="2"></path></g><g transform="translate(477 167)"><path d="M0 -54L46.8 -27L46.8 27L0 54L-46.8 27L-46.8 -27Z" stroke="#e6e6e6" fill="none" stroke-width="2"></path></g></g></svg>