<svg id="visual" viewBox="0 0 960 540" width="960" height="540" xmlns="http://www.w3.org/2000/svg" xmlns:xlink="http://www.w3.org/1999/xlink" version="1.1"><rect x="0" y="0" width="960" height="540" fill="#ffffff"></rect><path d="M0 312L32 294.8C64 277.7 128 243.3 192 239.8C256 236.3 320 263.7 384 280.7C448 297.7 512 304.3 576 293.3C640 282.3 704 253.7 768 237C832 220.3 896 215.7 928 213.3L960 211L960 541L928 541C896 541 832 541 768 541C704 541 640 541 576 541C512 541 448 541 384 541C320 541 256 541 192 541C128 541 64 541 32 541L0 541Z" fill="#e6e6e6"></path><path d="M0 233L32 231C64 229 128 225 192 228C256 231 320 241 384 268.3C448 295.7 512 340.3 576 366.5C640 392.7 704 400.3 768 404.5C832 408.7 896 409.3 928 409.7L960 410L960 541L928 541C896 541 832 541 768 541C704 541 640 541 576 541C512 541 448 541 384 541C320 541 256 541 192 541C128 541 64 541 32 541L0 541Z" fill="#d4d4d4"></path><path d="M0 439L32 445.7C64 452.3 128 465.7 192 454.3C256 443 320 407 384 391C448 375 512 379 576 392C640 405 704 427 768 428.5C832 430 896 411 928 401.5L960 392L960 541L928 541C896 541 832 541 768 541C704 541 640 541 576 541C512 541 448 541 384 541C320 541 256 541 192 541C128 541 64 541 32 541L0 541Z" fill="#c2c2c2"></path></svg>